<?xml version="1.0" encoding="UTF-8"?>
<svg width="1100px" height="1100px" viewBox="0 0 1100 1100" version="1.1" xmlns="http://www.w3.org/2000/svg" xmlns:xlink="http://www.w3.org/1999/xlink">
    <!-- Generator: Sketch 53.2 (72643) - https://sketchapp.com -->
    <title>Startnext Logo monochrom</title>
    <desc>Created with Sketch.</desc>
    <g id="Startnext-Logo-monochrom" stroke="none" stroke-width="1" fill="none" fill-rule="evenodd">
        <g id="Group-2" transform="translate(96.000000, 348.000000)" fill="#000000">
            <g id="Group" transform="translate(146.498097, 208.425887) rotate(-5.000000) translate(-146.498097, -208.425887) translate(11.998097, 69.425887)">
                <path d="M94.9968885,0.135384284 L268.02961,0.504533666 L243.130433,126.918617 L94.9970329,126.918617 C59.9494247,126.918617 31.5377245,98.5069166 31.5377245,63.4593084 L31.5377245,63.4593084 C31.5377245,28.4863912 59.8888756,0.135240177 94.8617927,0.135240177 C94.9068247,0.135240177 94.9518566,0.135288213 94.9968885,0.135384284 Z" id="Rectangle"></path>
                <path d="M63.9961584,151.006781 L236.963607,151.350064 L212.598508,277.515196 L63.9962264,277.714389 C28.9955975,277.761306 0.583948371,249.425723 0.537031948,214.425094 C0.536993991,214.396778 0.536975012,214.368461 0.536975012,214.340144 L0.536975012,214.340144 C0.536975012,179.362025 28.8923433,151.006657 63.8704628,151.006657 C63.9123614,151.006657 63.9542599,151.006698 63.9961584,151.006781 Z" id="Rectangle" transform="translate(118.750291, 214.360552) rotate(180.000000) translate(-118.750291, -214.360552) "></path>
            </g>
            <g id="Group-7" transform="translate(601.456066, 92.500000) rotate(-5.000000) translate(-601.456066, -92.500000) translate(293.456066, 27.000000)">
                <path d="M85.3776724,37.0873055 C82.0447769,28.6017743 76.3047903,25.4658171 64.8155589,25.4658171 C53.1504248,25.4658171 47.7807598,31.1843273 47.7807598,38.378582 C47.7807598,44.6504964 53.8910682,48.893262 67.6022299,52.9515595 C89.6363722,59.5924101 99.2647369,70.3007815 99.2647369,87.6407801 C99.2647369,113.660001 80.56349,131 46.1143121,131 C22.7747857,131 8.88772126,124.359149 0,109.961417 L25.191135,94.0971626 C30.0053173,102.038513 37.04143,105.534183 48.5214033,105.534183 C62.038146,105.534183 67.417069,99.4467366 67.417069,92.4369499 C67.417069,86.3495036 62.2325649,82.6601422 46.4846338,77.3105682 C27.9685478,71.0386538 16.3034137,59.9613462 16.3034137,42.2524115 C16.3034137,19.7473069 31.1162825,0 69.4538385,0 C89.821533,0 104.088177,7.56319088 110.568807,21.5827642 L85.3776724,37.0873055 Z" id="Fill-1"></path>
                <polygon id="Fill-3" points="239.165138 2.40366972 234.178767 27.8770311 200.927061 27.8770311 181.166258 129.798165 150.500078 129.798165 170.270114 27.8770311 137.009174 27.8770311 142.004779 2.40366972"></polygon>
                <path d="M282.165724,82.5340044 L305.54138,82.5340044 L301.116472,44.8685015 L282.165724,82.5340044 Z M224.743119,129.798165 L293.572971,2.40366972 L323.020225,2.40366972 L342.522936,129.798165 L311.061015,129.798165 L308.475986,108.016595 L269.286576,108.016595 L258.422094,129.798165 L224.743119,129.798165 Z" id="Fill-5"></path>
                <path d="M430.116592,56.1284656 C444.349129,56.1284656 454.323911,54.0979803 454.323911,39.3308143 C454.323911,29.9167459 446.556511,27.8770311 435.47342,27.8770311 L421.804274,27.8770311 L416.447446,56.1284656 L430.116592,56.1284656 Z M439.167783,129.798165 L427.345819,81.6110565 L411.450819,81.6110565 L402.030192,129.798165 L371.366972,129.798165 L396.11921,2.40366972 L444.16441,2.40366972 C469.840238,2.40366972 485.541284,16.0632983 485.541284,37.4849185 C485.541284,56.4976448 475.75122,69.6035046 457.648838,76.627138 L472.795729,129.798165 L439.167783,129.798165 Z" id="Fill-7"></path>
                <polygon id="Fill-9" points="615.656454 1.829227 610.680857 27.4180081 577.501001 27.4180081 557.782897 129.800947 527.18298 129.800947 546.910298 27.4180081 513.721227 27.4180081 518.706038 1.829227"></polygon>
            </g>
            <g id="Group-8" transform="translate(542.566779, 251.236580) rotate(-5.000000) translate(-542.566779, -251.236580) translate(284.066779, 185.736580)">
                <polygon id="Fill-12" points="128.097012 8.52651283e-14 102.776059 130.363714 77.8423338 130.363714 43.6434633 56.8658932 29.4765741 130.363714 -1.77635684e-13 130.363714 25.3209533 8.52651283e-14 49.8768945 8.52651283e-14 84.2646569 74.4328358 98.6204379 8.52651283e-14"></polygon>
                <polygon id="Fill-15" points="254.576171 8.52651283e-14 249.490621 26.0670761 198.625703 26.0670761 194.105215 49.8768945 239.319521 49.8768945 234.233971 75.9534152 189.019665 75.9534152 183.54799 104.287194 234.422325 104.287194 229.336775 130.363714 147.195725 130.363714 172.435121 8.52651283e-14"></polygon>
                <polygon id="Fill-18" points="258.605998 130.360881 307.988481 62.4596919 287.824674 0.585179973 321.179757 0.585179973 332.495987 37.638432 357.370964 0.585179973 392.054596 0.585179973 347.00639 64.3494924 370.373792 130.360881 337.58405 130.360881 322.875778 90.1109515 293.478078 130.360881"></polygon>
                <polygon id="Fill-20" points="516.895964 8.52651283e-14 511.827366 26.0670761 478.027325 26.0670761 457.940659 130.363714 426.76878 130.363714 446.864833 26.0670761 413.055406 26.0670761 418.133391 8.52651283e-14"></polygon>
            </g>
        </g>
    </g>
</svg>