<?xml version="1.0" encoding="UTF-8"?>
<svg width="1100px" height="1100px" viewBox="0 0 1100 1100" version="1.1" xmlns="http://www.w3.org/2000/svg" xmlns:xlink="http://www.w3.org/1999/xlink">
    <!-- Generator: Sketch 53.2 (72643) - https://sketchapp.com -->
    <title>Startnext Logo subtract</title>
    <desc>Created with Sketch.</desc>
    <g id="Startnext-Logo-subtract" stroke="none" stroke-width="1" fill="none" fill-rule="evenodd">
        <path d="M0,0 L1100,0 L1100,1100 L0,1100 L0,0 Z M191.042458,421.532616 C190.99759,421.536445 190.952725,421.540322 190.907864,421.544247 C156.068029,424.592338 130.295729,455.30657 133.343819,490.146404 C136.39842,525.060646 167.178248,550.887988 202.092489,547.833388 L349.662197,534.922711 L363.448911,406.819566 L191.042458,421.532616 Z M293.443847,691.2129 C293.485594,691.209332 293.527336,691.205721 293.569076,691.20207 C328.414093,688.153526 354.190227,657.434725 351.141683,622.589708 C351.139215,622.561499 351.136728,622.533292 351.134223,622.505086 C348.036979,587.641734 317.263836,561.890216 282.400484,564.987459 L134.38104,578.137437 L121.104673,705.94603 L293.443847,691.2129 Z M473.204554,431.598239 L496.94852,413.957145 C489.270664,400.555744 474.399133,394.264754 454.108944,396.039915 C415.917274,399.381253 402.881864,420.344442 404.843313,442.763908 C406.386748,460.405455 418.972944,470.423927 437.965204,475.058191 C454.119455,479.014886 459.60578,482.238349 460.136336,488.302631 C460.747279,495.285743 455.91938,501.818829 442.454073,502.996891 C431.017784,503.997436 423.703779,501.128306 418.215781,493.636758 L394.503167,511.636196 C404.611913,525.204525 419.024921,530.609768 442.275634,528.575594 C476.593722,525.573151 493.712525,506.669215 491.4448,480.749005 C489.93352,463.47499 479.408498,453.646534 456.879414,448.951356 C442.866723,446.103508 436.409885,442.409436 435.863252,436.161388 C435.236231,428.99451 440.087062,422.829763 451.707807,421.81308 C463.153318,420.811727 469.144779,423.435478 473.204554,431.598239 Z M623.383934,383.643124 L526.5933,392.111207 L523.836855,417.92303 L556.971227,415.024148 L546.159433,518.280514 L576.708919,515.60778 L587.511514,412.352219 L620.636687,409.454142 L623.383934,383.643124 Z M673.204709,459.72079 L688.800579,420.54695 L696.491413,457.683468 L673.204709,459.72079 Z M620.119957,511.809806 L653.670773,508.87449 L662.595524,486.228904 L701.635806,482.813322 L706.109388,504.286706 L737.451586,501.544619 L706.919927,376.334671 L677.584729,378.901169 L620.119957,511.809806 Z M818.291185,420.520965 L804.674054,421.712309 L807.548223,393.101502 L821.165353,391.910157 C832.20627,390.944202 840.121885,392.299182 840.942376,401.677427 C842.229419,416.388399 832.469562,419.280518 818.291185,420.520965 Z M833.728671,493.121466 L867.228653,490.190597 L847.505239,438.54204 C864.926587,429.967407 873.537146,416.058159 871.880077,397.117782 C870.01306,375.777677 853.181246,363.538464 827.603122,365.77626 L779.740748,369.963675 L766.185863,499.030696 L796.732399,496.35822 L801.917395,447.533416 L817.75191,446.148076 L833.728671,493.121466 Z M998.392521,350.257487 L901.81103,358.707272 L899.075398,384.633135 L932.138174,381.740517 L921.409185,485.453207 L951.892661,482.786248 L962.61247,379.074362 L995.666067,376.182547 L998.392521,350.257487 Z M502.951313,545.351197 L473.586906,547.920249 L465.773002,623.321035 L425.028847,552.168529 L400.566348,554.30872 L386.703695,686.383228 L416.068102,683.814175 L423.775325,609.36131 L464.249815,679.598822 L489.08866,677.425704 L502.951313,545.351197 Z M628.94918,534.327812 L547.120702,541.486876 L533.339296,673.554275 L615.167774,666.395211 L617.961253,639.974684 L567.280511,644.408675 L570.261913,615.705827 L615.304165,611.765141 L618.097644,585.344614 L573.055392,589.285301 L575.483517,565.172099 L626.154878,560.73893 L628.94918,534.327812 Z M644.325372,663.841407 L679.064753,660.802105 L704.842574,618.143161 L723.002889,656.958017 L755.667857,654.100202 L726.636102,590.37661 L765.955461,522.928731 L731.40381,525.951608 L709.852893,565.031859 L695.350321,529.10588 L662.122165,532.012967 L687.601961,591.894636 L644.325372,663.841407 Z M890.270767,511.465135 L791.884016,520.072861 L789.09725,546.483319 L822.778022,543.536634 L811.848491,649.187878 L842.901751,646.47107 L853.821931,540.820643 L887.493352,537.874776 L890.270767,511.465135 Z" id="Combined-Shape" fill="#FFFFFF"></path>
    </g>
</svg>